<?xml version="1.0" encoding="utf-8"?>
<!-- Generator: Adobe Illustrator 25.2.3, SVG Export Plug-In . SVG Version: 6.00 Build 0)  -->
<svg version="1.1" xmlns="http://www.w3.org/2000/svg" xmlns:xlink="http://www.w3.org/1999/xlink" x="0px" y="0px"
	 viewBox="0 0 1000 1000" style="enable-background:new 0 0 1000 1000;" xml:space="preserve">
<style type="text/css">
	.st0{fill:#C65E18;}
	.st1{fill:#939164;}
	.st2{fill:#EAE9E1;}
	.st3{fill:#A03232;}
	.st4{fill:#F59D22;}
	.st5{fill:#FFDE51;}
	.st6{opacity:0.62;}
	.st7{opacity:0.62;fill:#C65E18;}
	.st8{opacity:0.45;}
	.st9{fill:#B27C10;}
	.st10{fill:#FFFFFF;}
	.st11{fill:#B23636;}
	.st12{fill:#EF6F6F;}
	.st13{fill:#2D281F;}
	.st14{fill:#CCA339;}
	.st15{fill:#4F473B;}
	.st16{fill:#281305;}
</style>
<g id="Layer_13">
	<rect class="st0" width="1000" height="1000"/>
</g>
<g id="Layer_6">
	<path class="st1" d="M428,696.9c0.2,1-9.8,39.6-9.6,41.1c0.2,1.5,5.5,6,5.5,6l4.1,5.8l3.3,4.3c0,0,0.8,4.8,1.9,5.1
		c1.1,0.3,2.4,1.5,2.4,1.5s1.9-1.3,3.1-1.7c1.2-0.4,3.2-1.2,3.2-1.2c0,0,2.1-1.1,2.1-1.1s0.3-0.9,1.8-2.5s2.4-3.5,2.4-3.5
		s5.2-35,12.5-46c7.2-11,10.7-24.7,10.7-24.7v-14.7l-5.9-10.5c0,0-1.2-7-7.8-5C451.1,651.6,428,696.9,428,696.9z"/>
	<path class="st1" d="M543.4,630.6c-1.4,2.4-10.7,22.1-10.7,22.1l4.3,15c0,0,17.6,21.6,23.3,27.4c5.7,5.9,10.5,9.9,10.5,9.9
		s10.8,26.9,10.9,27.7s0.7,21.8,2.5,22.8c1.8,1.1,11.6,3.9,11.6,3.9l5-5.4c0,0-1.2-1,1.7-5.5s2.7-4.9,5.9-7.8
		c3.2-2.8,3.8-3.3,3.3-4.7c-0.5-1.4-1-4-1-4s-10.2-36.1-10.7-52.7c-0.5-16.6,4.6-30,4.6-30l0.4-16.1c0,0,1.8-10.2-3.1-15.4
		s0.5-9.3-7.3-8.1C586.8,610.9,543.4,630.6,543.4,630.6z"/>
	<path class="st2" d="M301.1,794.2c0.1,0.4-9.8,3.1-9.8,3.1s-0.5-0.4-1.7,1.3c-1.2,1.7-2,2.3-2,2.3s0.5,12,2.5,21.6
		c2,9.6,4.3,18.9,4.3,18.9s21.9,17.5,51.6,14.9s62.4-11.1,64.6-12.3s9.6-6.5,9.6-6.5l2.3-3.5l1-5c0,0,0.5-3.9,0.4-5.3s0-3,0-3
		l16.1-9.4l7.7-5.2l-0.6-4.6l-1.2-7.3c0,0-3.1-2.4-4.2-3.4c-1.1-1-1.8-1.6-1.8-1.6l-5.6-0.1c0,0-5.6,3.3-8.3,3.8
		c-2.8,0.6-5.8,1-5.8,1l-3.4,1.6l-5,5.1l-2.8,3.9l-38.6,8.9c0,0-37.8,0.8-42.2-0.6s-13.4-4.7-18.7-6.8S301.1,794.2,301.1,794.2z"/>
	<path class="st2" d="M607.5,793c-1.3-0.6-16.9-5.6-17.5-4.4c-0.6,1.1-4,5.7-4,5.7l-1.9,8.1l2.4,7l17.4,9.5l5.2,18.2
		c0,0,19.7,16.8,59,18.5c39.3,1.7,52.5-5.3,52.5-5.3s5.4-1.4,10.3-6.8s5.7-5.5,6.3-8.5c0.7-3,1.7-7.8,1.7-7.8s5-27.6,3.4-27.7
		c-1.6-0.2-7.9-4.2-7.9-4.2L730,793l-6.9,13.2l-27.5,7.9c0,0-47.8-2.2-51.1-2.8c-3.3-0.6-25.1-8.3-25.1-8.3l-4.7-5.3l-1.4-4.7
		L607.5,793z"/>
	<path class="st3" d="M392.1,730.7c-1.7,0.2-28-12.9-28-12.9s-27.8-4.1-40.1,12.9c-12.3,16.9-20.5,42.3-20.5,42.3
		s-4.3,10.8-3.5,15.4s0.8,4.1,3.3,11.3c2.5,7.2,10.3,11.7,19.7,13.6c9.4,1.9,53.6,0,53.6,0l28.9-7.1l3.5-1.5l2.8-3.9l3.5-3.6l3-4.2
		l17.9-4.4l8.6,0.6c1.5-2.1,10.8-23.8,10.8-23.8l-1.4-10.7l-2.6-3l-3.4-1.1l-9.6,8.4l-6.5-1.2l-3-3.6l-3.5-7.5l-3.3-6.8
		c0,0-4.9-0.9-7.1-4c-2.2-3.1-1.9-2.4-6.5-3.6c-4.6-1.2-7.5-3.1-7.5-3.1L392.1,730.7z"/>
	<path class="st3" d="M625.5,730.7c-1.6,0.6-16.9,7.8-16.9,7.8l-1.7,5.5l-4.1,7.6l-2.6,6.1c0,0,2.4,3.1-3.2,1.8
		c-5.6-1.3-3-0.5-3-0.5s-3.1-0.9-6-1.2c-2.9-0.3-5.2-1.4-8.3-2.7c-3.1-1.3-3.5-1.1-4-0.4c-0.5,0.7-0.5-3.2-0.5,3.1
		c0,6.2,8.6,36.6,9.8,36.6c1.1,0,5.1-3.8,5.1-3.8l3.9-1.7l15.8,5.2c0,0,3.3-1.2,4.8,1.4c1.5,2.5,7.3,11.1,30.6,14.6
		s63.3,1.7,63.3,1.7s20.4-7.7,21.5-19.5s-10.1-44.1-10.1-44.1l-11-14.4l-10.3-8.2c0,0-4-2.3-7.6-3.4c-3.6-1.1-5.9-2.8-5.9-2.8
		s-33.4,4.2-34.7,4.8c-1.3,0.6-4.4,3.5-4.4,3.5l-3,3.1H625.5z"/>
	<path class="st2" d="M617.6,734.3c0,0-8.1,7.5-7.8,9.7c0.3,2.2-2.1,13.9-2.9,15.5s-1.2,3.8-1.2,3.8l1.9,2.4c0,0,2.7-0.8,2.3-0.9
		c-0.5-0.2,1.3-6.4,4.8-10.7s7.3-6.8,7.3-6.8l3.9-3.3c0,0,2.8-1.4,3.6-3.1c0.8-1.7,2.8-3.2,3.6-4.9c0.8-1.7,2.3-2.3,0.2-3.8
		c-2.1-1.5-4.7-1.5-4.7-1.5S621.4,730.4,617.6,734.3z"/>
	<path class="st2" d="M402.7,745.1c0.5,0,3.6,1.6,7.9,4.5c4.3,2.9,9.6,13.7,9.6,13.7l1.1,2.3h1.2l2.2-1.5l0.3-1.7l-6.6-18.5
		l-1.8-6.9c0,0-1.6-4.4-3.4-4.3s-3.6-1.2-3.6-1.2l-7.8-0.8h-7.1l-1.3,1.8L402.7,745.1z"/>
</g>
<g id="Layer_4">
	<path class="st4" d="M401,556.3l-7,7c0,0-4.2,16,0,28.1c4.2,12.1,7,20.8,7,20.8s-2.6,31.4-1.6,38c1,6.6,3.4,13.1,3.4,13.1l6.4-0.2
		l3.8-1.8l2.6-2l1-3.5c0,0,1.6-5.8-0.6-17.9s-9.5-25.4-4-34c5.4-8.6,15.9-8.2,20.7-3.8s8,11.1,7.1,20.3c-0.9,9.3-5.9,30.6-8.5,47.7
		c-2.6,17.1-6.7,22.9-2,28.6c4.7,5.7,9.5,11.3,15.7,6.6c6.2-4.6,7.4-11.7,7.4-11.7s0.8-7.4-0.2-11.7s-1.6-8-1.6-8s0-1.6-0.2-4.4
		c-0.2-2.8,2.6-6,8.9-6.2c6.3-0.2,12.7,9.6,12.1,16.7c-0.6,7.1-3.6,30.7-4.6,43.6c-1,12.9-3,23.6,3.2,28.9
		c6.2,5.3,19.9,5.8,23.7-6.5c3.8-12.3,3-32.4,3-32.4s-9.2-28.8-8.4-38.4c0.8-9.7,7.2-20.5,7.2-20.5s10.1-5,18.1-5.2
		c8-0.2,9.9,6.6,9.9,6.6s3,24.3,2.8,28.2c-0.2,3.8-1.8,11.7-0.4,15.5c1.4,3.8-0.6,1,3.4,6.2c4,5.2-0.8,1.4,2.8,3.5
		c3.6,2.1,2.6,2.1,2.6,2.1l4-0.6c0,0,0.9-1.2,2.9-2.6c2-1.4,3.2-1.3,3.2-1.3l2.7-5.3l1.8-8.1l-1.3-12.1L545,669l-3.3-9.7
		c0,0-1.6-5.9,3-10.7c4.6-4.8,15.3-4.1,20.3-1.2c5,2.9,10.5,15.9,10.5,26.4s-0.2,27.1,0.4,36.4s3.6,17.9,3.6,17.9s3.2,5,4.7,4.4
		c1.5-0.6,1.7-2.3,2.7-1.8c1,0.6,8.9-0.2,11.3-8.7c2.4-8.4,1.4-19.8,1.4-19.8l-3.9-9.5c0,0-14.4-34.5-12.2-50.7s1.7-15.4,8.9-18.5
		c7.1-3.2,12,5,11.3,9.9c-0.8,4.9-0.8,24.7-0.8,24.7s8.2,3.3,11.9,0.7s6.6-7.6,6.6-7.6v-5c0,0,2.6,4.6-2.8-5.4
		c-5.4-10.1-0.2,2.6-3.8-5.4s-2.8-7.4-2.8-7.4s-5.2-19.3-1.6-27.6c3.6-8.2,5-10.9,5-10.9l0.4-2.6l-1.6-4l-2.6-4l-0.6-3.8l-0.4-5.2
		c0,0,3.8-16.9,4-17.7s-0.6-8.6-0.6-8.6l-3.4-7.6l-2.6-5.8l-4.4-12.3l-3.6-6.6c0,0-2.2-3.2-5-3.6c-2.8-0.4-34.7-6.8-34.7-6.8
		L401,556.3z"/>
	<path class="st5" d="M356.6,269.5c0,0-4.6,24.1-11.7,66.3s-2.9,60-2.9,64.4s1,11.7,1,11.7s1.8,6.7,1.9,6.9c1,2.3,3.9,16.3,3.9,16.3
		s-3,25,2.7,44.3c5.7,19.3,24.3,50.7,24.3,50.7l18.1,25.3l3.5,3.3l7.2,0.6l1.6,3l2.2,7.2c0,0,1.7,3.7,1.8,4.8
		c0.1,1.1,0.7,1.7,0.7,1.7h4.4h2.5c0,0-2.2-11.4,4.3-13.6c6.5-2.2,10,2.2,10,2.2l2.2,6.1c0,0,2.6,3.8,3.2,5.4c0.6,1.6,2.2,2,2.2,2
		s8.2,3.4,9.7,1.8c1.5-1.6,5.6-3.8,5.6-3.8s0.4-2.9,1.7-6.4s2.4-7.2,2.4-7.2s0.6-4.3,1.9-5.8c1.3-1.5,11.9-5.6,18.2-4.8
		c6.3,0.9,11.3,4.5,10.6,10.6c-0.7,6.1,4.6,29.8,10.4,29.2s11.6-7.1,11.6-7.1v-9.7c0,0-8.6-30.4-5.2-38.7c3.4-8.3,11.5-9.1,15.8-9.8
		c4.3-0.8,6.1,4,6.1,4l-0.4,9.3l2.3,10.2l11.5,2.2c0,0-0.2,6.3,1.3-1.9c1.5-8.2,1.1,3.5,1.5-5.8c0.4-9.3-4.5,1.5,0.2-7.1
		c4.8-8.7,1.5-6.7,1.5-6.7l11-4l4.3,1.4l1.5,2.6c0,0,6.1,3.2,10.4,1.7c4.3-1.5,6.9-5.7,6.9-5.7l0.2-6.9l-1.9-8.8l0.2-10
		c0,0,2.6-2.4-1.7-3.7c-4.3-1.3-34.2-0.4-57.1-26.7c-22.9-26.3-29.2-71.2-29.6-77.5s-1.7-12.8-1.7-12.8s-0.7-50.8-1.4-51.9
		c-0.8-1.1,0-8.4,0-8.4l-3.6-4.8l0.2-4.6c0,0-3-2.3-2.2-4.5c0.9-2.2,1.9-4.3,1.9-4.3l3.6-3.8l4.3-2.1c0,0-0.3-2.3-0.6-2.6
		c-0.3-0.3-2.1-15.1-2.1-15.1l-0.2-4.5l-3.1-0.2l-3.7,1.4c0,0-0.4,3.1-3.4,4.4c-3,1.3-6.9,4.5-6.9,4.5s-27.5,13.5-46.3,1.1
		c-12.8-4.5-15-7.6-15-7.6s-29.2,7-29.3,8.3C381,286.2,359.8,279.4,356.6,269.5z"/>
</g>
<g id="Layer_11" class="st6">
	<path class="st7" d="M402,657.2c0.7-0.2,10.3-0.2,8.6-10.5c-1.7-10.4-8.9-33.1,0.1-43.6c1.8,7.1,0.8,17.8,0.8,17.8l1.8,6.4l2,7.3
		c0,0,0.4,4.9,1.5,8.4c1.1,3.5,2.3,6.3,2.3,6.3s1.7-0.1,0.3,3.7c-1.4,3.7-11.9,20.9-17.5,5.1"/>
	<path class="st0" d="M427.7,686.5c0-0.7,1.7,10,10.1,3.8c8.5-6.2-2.3-28.8,10.7-36.3c13-7.5,21.3,11.9,21.3,11.9l-14.1-2.4
		l-2.2,1.2c0,0-1.7,0.7-2.9,2.9s-1.2,5.7-1.2,5.7l1.8,22.7c0,0,1.4,2.3-1.6,5.5c-3,3.2-1.7,2.3-1.7,2.3S426.1,711.1,427.7,686.5z"/>
	<path class="st0" d="M469.8,751.6c0,0,0.3-0.1,0.9-0.2c3.9-1.2,19.6-7,14.2-25.9c-6.2-21.5-8.3-52-3.8-66.2
		c4.5-14.2,22.6-23.1,30.1-16.1c-13.9,2.8-18.1,4.3-20.7,13.6c-2.6,9.2-3.4,25.2-3.4,25.2l1.9,10l3.4,12.7c0,0,1.7,0.5,2.3,8.2
		c0.6,7.7,1.8,14.1,1.8,14.1l0.3,12.2l-0.9,4.6c0,0-0.4,3.8-4.3,6.6c-4,2.9-18.8,14.4-21.3,1"/>
	<path class="st0" d="M528.8,704.7c0,0,12.8-1.6,9.2-13.7c-3.6-12.1-6.4-36.9,0.4-45.4s17.3-9.8,22.8-2.3c-10.5-1.1-16.2,4-16.2,4
		s-1.1-5.3-3.3,6.8c-2.2,12.1-1.2,6.4-1.2,6.4l-0.3,11l3.6,6.9l2.4,4.9l2.3,6.9l1.1,9.1l-1.9,5.4l-4,2.7
		C543.7,707.5,529.5,713.9,528.8,704.7z"/>
	<path class="st0" d="M596.6,725.6c0.3-0.6-10.6,3.6-11.3-10.7c-0.7-14.3,0.8-52.8-17.2-64.5c6.4,12,8.7,29.3,8.7,29.3l-2.5,9.9
		l-1.1,7.9l-0.4,12.7l2.4,7.6l1.4,6.1l2.8,4.1C579.5,728.1,589.8,740.1,596.6,725.6z"/>
	<path class="st0" d="M583.3,638.3c0.3,1-4.9-16.9,6.8-22.9s19,10.2,17.5,19.8s0,17.9,7.3,19.1c-3.7,3-7.3,3.6-7.3,3.6l-3.6-4.5
		l-0.9-3.2l0.6-5.6l-0.1-17.5l-3.3-3.9l-3.7-0.5l-3.6,0.1C592.9,622.9,580.5,630,583.3,638.3z"/>
	<path class="st0" d="M473.6,737.2c1.1,7.4,2.3,1.7,2.3-1.7"/>
</g>
<g id="Layer_12">
</g>
<g id="Layer_8">
	<g class="st8">
		<path class="st9" d="M366.9,279.4c-1-2.3-11.6,35.8-13.1,63.2s1.9,73.8,2.7,86.8s-4.6,7.6-5.7,7.9c-1.1,0.3-2.2,7-2.2,7v11.6
			l1.8,9.5l16.5,33.3l4.6,14.6c0,0,1.3,7.3,4.9,14.3s4.7,8.7,4.7,8.7l7.3,6.5l5.3,8.4l3.5,3.5l3.9,1.6c0,0-0.2-1.6,1.5,0.7
			c1.8,2.3,1.8,2.3,1.8,2.3v3c0,0,1,10,2.3,11.8s3.3,3.3,3.3,3.3s1.9,1.5,3.5,0l2.5-4.4c0,0,0.4-4.4,2.1-7s0.3-3.8,0.3-3.8h3.5
			l3.7-0.6l6.2,2.8c0,0-16-19.5-26.4-38.4c-10.5-18.9,0.5-22.1,8.1-33.8s9.1-19.8,7.3-31.6c-1.8-11.7-4.8-13.6-4.8-13.6l-9.7-2.8
			l-3.4-2.5l-1.6-1.5l0,0l-1.1,9.9c0,0-2.3,3.7-6.5,4.9c-4.2,1.2-2,4.6-12.7,5.6c-10.6,1-9.4-16.9-11.6-40s18.9-32.9,18.9-32.9
			l16-36c0,0-4.2-8.6-7.2-9.2c-3-0.6-6.6-6.4-5.5-18.4s11-13.6,26.4-11.2s28.3,8.9,39.1,8.2c10.8-0.7,0,19.5,0,19.5l24.5,1.8
			c0,0-10.3-9-10.2-16.3c0.1-7.3,12.1-11.8,12.1-11.8l9.1-10c0,0,0.5-6.8,0-7.1s0-4.7,0-4.7l1.3-11.8c0,0-2.3-7.6-5.4-7.8
			c-3.1-0.2-3.1-0.2-3.1-0.2s-2.3,1.7-3.7,1.4c-1.4-0.3-3.4-0.3-3.4-0.3l-2.2,7l-6.2,4.3l-3.8,0.7l-6,4.1c0,0-17.2,2.8-22.6,1
			c-5.4-1.8-7.3,5.4,10.5,4.4c17.8-1,27.1,2.5,16.8,11c-10.3,8.5-21.6,7.3-31.5,1.4s-18.5-15.3-15.4-24.5c-2.7-6.5-4.4-3.9-4.4-3.9
			L410,279l-10.8,3.2l-11.6,0.9C387.6,283.1,369.9,286.2,366.9,279.4z"/>
	</g>
	<g class="st8">
		<path class="st9" d="M444.8,407.7c0.6,0.1,9.3-4.8,7.7-8.8c-1.5-4-7.7-16.2-7.7-16.2l1.7-5l1.8-0.3c0,0,4.7,6.6,11.1,7
			s22.4,1.3,22.4,1.3l4,0.4l1.5,1.5l0.8,3.3c0,0-6,3.3-13.7,3.9c-7.7,0.5-9-1.9-9.4,4c-0.4,5.9,6.6,9.4,6.6,9.4l-3.4,2.9l-4.1,2.9
			l-3.4,1.1l-3.4,0.8c0,0,11.2-3.6,9.2-8.2c-2-4.6-10.7-1.7-10.7-1.7l-4.3,1.7"/>
	</g>
	<g class="st8">
		<path class="st9" d="M433.5,562.2c0.2-0.5,8.6,4.4,15.9-10.2c7.4-14.6,6.6-36.6,1-53.2c-5.6-16.6-19.8-23.2-15-23.4
			s16.2-1.6,27.3-9s8.1-0.8,1.4,6.2c-6.7,7,3.1,30.8,8.9,45c5.8,14.2,15.2,36.4,14.6,35.7c-0.6-0.6-4.7-2.7-9.4-2.3s-6.8-3.1-11.3,1
			s-4.9,5.5-4.9,5.5l-3.8,7.1l-3.1,9.7l-1.9,3.6l-3.9,1.6c0,0,6.4-1.7-2.8-1.6c-9.2,0.1-6.9-0.2-6.9-0.2S431.1,569.9,433.5,562.2z"
			/>
	</g>
</g>
<g id="Layer_5">
	<path class="st10" d="M315.7,406c-1.8,0.9-12.5,7.3-12.5,7.3v3.9l2.5,6.4c0,0,10.7,22.3,13,29.6c2.3,7.3,4.8,16,4.1,16.3
		c-0.7,0.3-0.8,2.5-0.8,2.5s-0.5-0.5-3.3,4.5c-2.8,5-3,7.9-3,7.9v4.9v8.6v3.9l-6.3,6.3l-3.4,6.6l1.8,6.3l3.1,5.1l4.7,6.3l8.5,7
		c0,0-3.8,9.9-0.5,16.1c3.3,6.2,7.9,13.3,25,6.9c17.1-6.4,28.5-13.9,28.5-13.9v-5.7l-1.5-12.6l-1.3-4l2.9-3.7c0,0,1.6-12.8-5.7-19
		c5.5-3.8,20.2-11,20.2-11s14.8-9.5,15.6-15.3s0.8-15,0.8-15l-1-4l-2.7-3l-1.5-4.3l-2.7-0.6l-3-1.2l-16.1,9.3l-23.3,7.5l-4.3-0.3
		l-4.8-0.2c0,0-3.2-14.8-2.7-17.8c0.5-3,2.7-16.4,2.7-16.4l-3-10.4l-2.4-7.3C343.3,413.3,331.9,398.1,315.7,406z"/>
	<path class="st1" d="M313.5,440.6c0,0-14.6,20.4-17.4,32.7c-2.8,12.3-2.5,30.9,0,33.6c2.5,2.7,6.3,6.4,6.3,6.4l2.2,3.8
		c0,0,2.5,1.2,1.4-0.2c-1.1-1.3,7.6-10.8,7.5-13c-0.1-2.1,2.1,2.6,2.1-6s1.3-7.4,1.3-7.4l-1.3-6.1l2.2-6.3l4.1-6.1
		c0,0,1.8-0.3,0.7-4.6C321.6,463.1,313.5,440.6,313.5,440.6z"/>
	<path class="st1" d="M521.1,414.2c0,0.1-16.5,0.5-18.9,0s-6.1,0-6.1,0l-0.2,1.4c0,0,6,25.5,6.9,27.1c0.9,1.6,7.6-0.5,7.6-0.5
		l3.8,0.7l3,1.3l2.1,0.8c0,0,1.4,1.6,1.4,1.1C520.6,445.7,521.1,414.2,521.1,414.2z"/>
	<path class="st10" d="M558.7,386.4c0,0,3.4-10,1.4-16.2c-2-6.2-4.4-17.3-9.1-20.7c-4.7-3.4-11.2-9.2-17.3-6c-6.1,3.2-8.8,7-8.8,7
		s6.3,14.9,5.2,25.8c-1,10.9-4,24.3-5.2,27.6c-1.3,3.3-2.2,3-4.5,9.4c-2.3,6.4-1.7,21.1,0.2,31.1c1.9,10,5.8,14.8,9.5,19.2
		c3.7,4.4,10.4,7.9,10.4,7.9l3.4-0.2c0,0,8.4,7.4,20.1,4.3c11.7-3.2,29.9-14.3,30.8-16.3c0.9-2,4.5-11.5,4.5-11.5l-2.2-5.9l-4.1-4.6
		l-0.3-5.6l3.9-5l0.9-5.5c0,0-1.2-2.5,0.5-2.5c1.6,0,15.5-2.7,15.5-2.7s10.6-11.1,11.2-15c0.6-3.9,1.1-10.2,1.1-10.2l-0.5-9.3
		c0,0,3.8-1.1-0.9-8.8c-4.7-7.7,1.8-3.5-2.6-5.6c-4.4-2-3-2.6-3-2.6l-25.5,12.5c0,0-19.9,9.1-24.6,9.8c-4.7,0.8-8.1,0.8-8.1,0.8
		L558.7,386.4z"/>
	<path class="st10" d="M433.4,417.3c-0.5-0.4-26.2-1.7-26.7-0.8c-0.5,0.9,2,4.9,2,4.9s13.4,11.9,18.1,12s27-1.5,27-1.5l2.5-0.2
		c0,0,1.1-0.6,1.2-0.6c0.1-0.1,1.4-1.7,1.4-1.7s1.4-2.2,1.4-4.7c0-2.6-1.1-7.4-1.1-7.4l-0.8-3C458.4,414.2,437.5,420.3,433.4,417.3z
		"/>
	<path class="st11" d="M390.6,414.2c-0.8,0.2,4.4,21.1,12.3,27.5c7.9,6.4,22.6,13.9,32.8,13.3c10.2-0.6,21.5-1.8,21.6-2.6
		s1.6-2.3,1.6-2.3l1.8-1.2v-1c0,0-2.6-9.2-3.4-10.5s-2.2-5.1-2.7-5.6c-0.5-0.5-0.5-0.5-0.5-0.5s-11.4,2.6-14.5,2.2
		c-3.1-0.4-15.3-0.9-17.6-1.9c-2.3-1.1-4.7-1.5-7.8-3.8c-3-2.3-5.2-4.9-5.2-4.9l-2.5-4c0,0,1.1-2.3,0.1-2.3
		C405.7,416.5,390.6,414.2,390.6,414.2z"/>
	<path class="st12" d="M419.1,446.3l6.5-3.7l4.6-0.8l2-1.2l5,1.2c0,0,2.3,1.9,3.2,1.7c0.9-0.3,0.9-0.3,0.9-0.3s3.7-2.7,4.1-2.6
		c0.5,0.1,1.3,0,1.3,0h1.6h0.9l3.3,4.5c0,0,1.5,0.3,2.3,1.2c0.8,0.8,0.8,0.8,0.8,0.8l0.6,0.9l1,1.2l-0.5,1.5h-1.4
		c0,0-8,3.1-11.8,2.8c-3.8-0.3-10.8-0.6-10.8-0.6l-8.1-2.2c0,0-2.6-0.1-3.8-0.6C419.7,449.7,416.6,447.7,419.1,446.3z"/>
</g>
<g id="Layer_9">
	<path class="st10" d="M478.7,386.7c-0.7,0.5-1.5,22,5.9,41.3c7.3,19.3,20.2,49.3,34.4,59.6c14.2,10.3,37.1,17.6,33.2,23.4
		c-3.9,5.9-7.4,15.4-4.1,11.2c3.4-4.2,13.1-11.2,13.1-11.2l4.9-4.1l5.3-1.7l3.3-3.2l-1.8-1.6c0,0,0.5-0.6-1.5-1.5
		s-46.2-15.6-58.5-35.7c-12.2-20.1-17.1-44.4-17.1-44.4l-3.1-13.7l-2.5-14.2l-2.2-8.2L478.7,386.7z"/>
	<path class="st10" d="M479.6,311.5c-0.5,0.7-4.9,13-1.3,28.5c3.6,15.5,5.4-0.7,5.4-0.7l0.9-10.4v-7.8v-4L479.6,311.5z"/>
	<path class="st10" d="M583.8,511.9c0,0.7,10.9-0.9,16,14.1c5.2,15,8.6,24.1,5.8,33.9c-2.8,9.7-6,14.7-2,19.7
		c4,5.1,3.1,8.7,0.8,10.8c-2.3,2.1-13.5,8.4-9.2,7.3c4.2-1.1,15.9-3.5,18.2-7.3c2.3-3.8,1.3-6.2,1.3-6.2l-3.2-5.6l-0.6-3.8
		c0,0-0.9-3-0.4-5.2c0.5-2.2,1.2-5.4,1.2-5.4l1.7-7.6l1.1-5.6l-0.5-6.9l-2-8.9l-4.3-11.8l-4-9.2l-7.4-6.4
		C596.2,507.7,583.8,507.2,583.8,511.9z"/>
	<path class="st10" d="M629.9,744c-1,1.5,22.1-18.4,44.4-15.4c22.2,3,34.1,18.1,39.5,33.9c5.5,15.8,8.9,41.1,7.6,42
		c-1.3,0.9,5.8-8.9,5.8-8.9s1.6-6.1,1.1-8.2c-0.5-2-1.9-17.8-1.9-17.8l-10.8-23.3c0,0-8.1-13-11.3-16.4c-3.2-3.4-6.9-5.2-6.9-5.2
		l-8.9-3.7C688.5,721.1,649.9,713.8,629.9,744z"/>
	<path class="st10" d="M311.5,750.5c-0.6,1,12.4-23.8,40.6-21.8s36.1,21.9,35.8,38.3c-0.3,16.5,11.9-22.1-3.8-38.5
		C367.8,713.5,336.4,705.3,311.5,750.5z"/>
	<path class="st10" d="M495.9,424.7c1.1-1.2,12.3-9,23.1-0.8c2.2-7,1.5-10.5,1.5-10.5h-3H513H507h-6c0,0-3.1-0.8-5.1,0
		C493.9,414.2,495.9,424.7,495.9,424.7z"/>
	<path class="st10" d="M318.9,448.4c-1.6,1-11.9,10.6-15.7,26.2s6.3,33.4,6.3,33.4l-7,2.5l-5.8-12.7l-2.4-10.4V479
		c0,0,5.3-13.1,8.2-19.5c2.9-6.4,8.6-14.5,8.6-14.5l1.1-2.4L318.9,448.4z"/>
	<path class="st10" d="M474.7,728.6c-0.7-0.3-2.5,3.1-2.1,6.9c0.4,3.8,1.7,9.7,2.6,6.6C476.1,738.9,478.5,730,474.7,728.6z"/>
	<path class="st10" d="M434.3,680c0,0-1.6,1.1-1.2,5.1s1.9,0.4,2.2-2.2C435.5,680.3,434.3,680,434.3,680z"/>
	<path class="st10" d="M531.7,686.6c-0.3,0.3-1.1,1.8,0.2,7.1s2.2,4.4,2.2,1.4S533.2,684.9,531.7,686.6z"/>
	<path class="st10" d="M591.7,706.2c-0.3,0.4-1.5,2.3-0.6,8.2s2.7,7.2,2.9,4.5C594.2,716.2,593.5,703.3,591.7,706.2z"/>
	<path class="st10" d="M590.8,698c0,0-0.5,1.4,0,2.6c0.5,1.3,1.1,0.4,1.1-0.8C591.8,698.5,591,697,590.8,698z"/>
	<path class="st10" d="M403.9,645c-0.1,0.2-1.4,1.1-0.8,5.2c0.6,4.1,2.1,0,2.1-2.5C405.3,645.3,404.5,644.1,403.9,645z"/>
	<path class="st10" d="M404.1,638.6c0,0-0.6,0.9-0.4,1.8c0.2,1,1-0.2,1.1-1.3C404.8,638.1,404.4,638,404.1,638.6z"/>
	<path class="st10" d="M613.1,644.4c0,0.1-0.8,1,0.6,3.8c1.4,2.8,2.5,2.5,1.7-0.4C614.7,645,613.6,643.4,613.1,644.4z"/>
	<path class="st10" d="M611,637.8c-0.1,0.1-0.7,0.8,0.2,2.1c0.9,1.3,1.6,1.1,1.3,0C612.1,638.9,611.5,637.1,611,637.8z"/>
	<path class="st10" d="M394.8,581.3c1.1,0.8-0.1-4.4,2.2-8.9c2.3-4.5,2.6-0.8,4.5,4.5c1.8,5.2,1.6,0.9,0.6-3.4
		c-1-4.3-4.8-9.1-2.4-12.2c2.4-3.1-3.7,0.2-3.7,0.2S388.7,576.8,394.8,581.3z"/>
	<path class="st10" d="M409.1,582.9c-0.1-0.2,3.8,1.6,8.1-0.6c4.3-2.2,4.7-4.7,4.9-6.6c0.6,3.3-0.8,5.8-3.7,7.9
		C415.5,585.6,410.2,585.2,409.1,582.9z"/>
	<path class="st10" d="M466.1,566.6c-0.1,0.2,0.4-7.2,7.1-8.2c6.7-1,9.6,4.6,9.6,4.6S472.6,555.2,466.1,566.6z"/>
	<path class="st10" d="M494.9,601.3c0,0,4.6,4.1,12.2,1.7c7.5-2.4,9.3-5.2,9.6-9.4C514.7,598.4,506.3,603.2,494.9,601.3z"/>
	<path class="st10" d="M512.8,539.1c-0.1,0.1,0.4-5.8,5.4-7.9c5-2,5.6,3.9,5.6,3.9S519.3,527.7,512.8,539.1z"/>
	<path class="st10" d="M552.2,542c0.1,0.7-1.9-3.4-0.8-5.8c1.1-2.5,7.2-5.3,10.1-0.8C557.6,533,550.7,534.9,552.2,542z"/>
</g>
<g id="Layer_7">
	<path class="st13" d="M304.1,192.2c0,0-17.1,2.8-20.3,22.4c-3.2,19.5,4.9,34.7,4.9,34.7s6.6,9.1,10.7,13.2s6.9,6.1,6.9,6.1l2.7,2.7
		l2.3,0.9c0,0-0.4,21,12,27.9c12.5,6.8,23,6.2,23,6.2l0.5-7.2l10.7-27.4c0,0,7.3,16.9,26.4,14.1c19.1-2.8,29.9-10.1,29.9-10.1
		s18.5-24.8,18.2-26.4c-0.3-1.5,0.5-3.9,0.5-3.9s14,5.4,17.6,3.9c3.6-1.5,5.6-3.2,5.3-1.8c-0.2,1.5,0.9,14.2,8.3,17.5
		s14.7,8.8,14.7,8.8s-1.5,0.5,2,0c3.5-0.5,3.5-0.5,3.5-0.5l3.3,0.8l1.5,1.2c0,0-3.3,12.7,2.2,17.2c-3.2,2.5-7.9,9.7-7.9,9.7
		l-1.2,5.3l1.7,6.9c0,0,0.9,1.3,1.9,2.5c0.9,1.3,1.7,1.4,1.7,1.4s9.5,1.6,14.9-0.8c5.3-2.4,12.2-7.9,12.2-7.9s11.2,3.6,18.2-2.1
		c7-5.7,7.1-10.3,7.1-10.3v-5l0.9-4.8l0.3-1.8c0,0,18.5-6.4,18.7-24.9c0.2-18.5-6.4-24.7-6.4-24.7l-6.9-8c0,0,1.6-8.5-1.3-13.4
		c-2.9-4.9-7.3-7-7.3-7l-0.9-2.6c0,0,1.6-9.3-3-15.9c-4.6-6.6-7.3-9-8.1-9c-0.7,0-4.8-2.5-4.8-2.5s4.8-18.7-1.8-27.9
		s-14.5-13.2-15-13.4c-0.5-0.2-11-0.8-11-0.8s-6-11.8-12.5-16.2s-15.5-5.4-21.4-3.8c-2.4-7.2-4.7-5.4-5.1-7.4c-0.4-2-3-0.5-4.4-0.5
		s-1.8,0.7-3.5,1.3c-1.6,0.5-1.1,0-2.2,0.2c-1.1,0.2-4.8,1.3-4.8,1.3s-5-4.8-9.6,0c-4.6,4.8-8.3,10-8.3,10l-3.5,1.8h-2h-3l-3.2-0.6
		l-0.7-0.8c0,0-6.2-5.1-14.2-0.3c-8.2,4.8-8.2,7-8.8,6.6s-9.2-2.9-9.2-2.9s-13-5.1-26.9,2.9c-13.9,8.1-17.2,15.2-17.8,17.3
		s-0.8,14.5-1.2,14.8c-0.4,0.4-10.6-0.9-20.7,11.8C300,183.7,304.1,192.2,304.1,192.2z"/>
	<path class="st14" d="M445.8,250.7c-1.4-0.2-7.8-3.4-7.8-3.4l-5.9,0.6c0,0-0.5-1.1-2.1,1.4c-1.6,2.5-5.1,19.7-5.1,19.7
		s-7.5,4-8.8,4.8c-1.3,0.8,0,1.4,0,1.4l-0.6,1.4c0,0,4.1,7.1,10.7,9.1c6.6,2,22.6,7.2,32,4.1c9.5-3.2,18.7-7.9,18.7-7.9l1.6-3.3
		v-2.5v-2.3l-1.2-1c0,0-9.3,1.2-11.4-3.3c-2.1-4.5-3.4-5.3-3.4-5.3l-6.9-14.9L445.8,250.7z"/>
</g>
<g id="Layer_10">
	<path class="st15" d="M545.6,242.2c0,0,3.8,5.2,2.6,17c-1.3,11.8-5,13.4-6.9,14.6C550,271.5,557.8,257.8,545.6,242.2z"/>
	<path class="st15" d="M333.4,168.9c0.8-0.5-11.2,0.9-17,12.5c-5.8,11.6,4.7,21.9,4.7,21.9S312.2,181.6,333.4,168.9z"/>
	<path class="st15" d="M366.6,254.8c0,0,3.2,14.3,24.8,12.2c20.3-2,21.4-19.7,21.4-19.7S390.5,271.5,366.6,254.8z"/>
	<path class="st15" d="M433,220.5c-0.2-0.5-1.8,12.2,7.1,16c9.6,4,16,0,16,0S438.5,236.9,433,220.5z"/>
	<path class="st15" d="M468.7,243.1c0,0-0.3,11.4,9.8,16.8c9,4.8,20.1-0.2,20.1-0.2S479.9,261.7,468.7,243.1z"/>
	<path class="st15" d="M519.9,215.8c-0.9,0.1,10.6-4,15.6,1.9c5,5.9,1.1,15.5,1.1,15.5S540.8,214.4,519.9,215.8z"/>
	<path class="st15" d="M478,147.9c-0.7,0.1,14.6-8.5,25.8,0.1c10.5,8.2,5.5,19.8,5.5,19.8S509.2,142.5,478,147.9z"/>
	<path class="st15" d="M453.7,122.8c-0.6,0,9-4.4,18.7,2.1c8.3,5.6,2.6,11.9,2.6,11.9S475.2,122.5,453.7,122.8z"/>
	<path class="st15" d="M303.4,213.1c0,0-13.8,3.7-8.2,22.4c5.6,18.7,28.1,19.2,28.1,19.2S288.8,241.1,303.4,213.1z"/>
	<path class="st15" d="M346.2,153.5c-0.2,0.7-1.9-15.4,12.5-20.7c14.4-5.3,28.9,2.8,28.9,2.8S354.1,129.6,346.2,153.5z"/>
</g>
<g id="Layer_2">
	<path class="st16" d="M306.6,265c-0.6,0.4-0.6,14.4,5.6,27.8c6.3,13.4,22.5,18.5,30.5,15.7c2.6-2.7,2.1-5,2.1-5
		s-34.3-1.7-29.2-32.4C308.3,269.7,306.6,265,306.6,265z"/>
	<path class="st16" d="M302.3,191.2c-0.5-0.2-22.9,5.3-24,33.2c-1.1,27.8,26.3,53,48.7,49.8c-19.4-7.4-39.9-24.9-41.6-44.6
		c-2-17.3,11.3-29.2,18.3-31.2C303.7,194.8,302.3,191.2,302.3,191.2z"/>
	<path class="st16" d="M333.9,157.9c-0.5,0-15.1-2.4-26.4,10.7s-11,32.6,2.9,38.8c-6.7-10.3-5.2-31.3,6.1-40.2
		c11.3-8.9,26.3-3.5,26.3-3.5S340.7,157.7,333.9,157.9z"/>
	<path class="st16" d="M423.9,222c0.3-0.5-3.5,16.2,9.1,22.7c12.6,6.5,26.8-4.6,26.8-4.6s-3.1,23.2,13.2,29
		c16.4,5.8,32.9,0.7,34.9-6.8c-2.2,16.4-27.3,16.5-38.4,11.4c-11.1-5.1-14.9-14.7-15.2-21C440.4,258.6,408.5,244.9,423.9,222z"/>
	<path class="st16" d="M486.5,274.3c-0.5,0.4-5.4,23.2,13.5,23c-9.3-3.6-13-15.3-7.2-23C490.5,274,486.5,274.3,486.5,274.3z"/>
	<path class="st16" d="M489.7,291.3c0,0-10.4,2.6-11.2,16.4c-0.9,13.8,13.4,15.6,25,11.7c12.9-4.3,12.3-15.9,12.2-20.6
		c-4.4,11.7-4.4,14.4-14.4,16.3s-14.9-0.1-17.4-5.2s5.9-14.9,9.6-14.4C491.3,292.8,489.7,291.3,489.7,291.3z"/>
	<path class="st16" d="M513.4,311.7c0,0,17.4,4.8,25.1-4.8c7.8-9.6,5.9-25.9-4.3-29.5c7.4,9.5,6.4,33.9-19.6,27.2
		C513.3,310.5,513.4,311.7,513.4,311.7z"/>
	<path class="st16" d="M545.2,231.3c0,0,10.1,6.2,11.7,23.3c1.7,17.1-9.9,27.3-17.3,28.4c1.1,5.5,1.7,6.9,1.7,6.9s16.2-7.3,20.1-24
		c3.9-16.7-2.2-29.6-13.6-38.6C545.4,227.2,545.2,231.3,545.2,231.3z"/>
	<path class="st16" d="M523.4,209.1c-0.3,0.3,11-3.8,17.4,3.8s5.1,21.3-2.4,24.8c5.4,1.3,15.3-11.2,10.1-22.4
		C543.2,204.1,532.3,202.2,523.4,209.1z"/>
	<path class="st16" d="M519.2,181.4c0,0,19.5,3.3,13.3,25.1c6.8,1.5,7,1.7,7,1.7s4.4-29.2-21.4-32.2
		C518.2,177,519.2,181.4,519.2,181.4z"/>
	<path class="st16" d="M506.8,170.6c0.4,0,16.6,4.2,10.3,23.8c6.2-7.1,8.9-23.5-9.9-23.8"/>
	<path class="st16" d="M472.4,145.7c-0.2,0.3,19.4-16.8,34.3-4.6s11.5,31.7,10.6,34.1c1.2,1.8,2.5,4.3,2.5,4.3l1.9-1.3
		c0,0,7.5-18.4-1.8-32.4C510.6,131.7,486.9,125.6,472.4,145.7z"/>
	<path class="st16" d="M351.3,251.7c0,0.1,0,0.4,0.1,0.9c0.7,5.1,7,29.5,32.1,28c27.8-1.6,44.3-21.8,43.7-35.1
		c3.3,1.5,7.1,3.9,7.1,3.9s-4.4,26.5-34.2,36.4c-25,8.3-49.3-1.7-48.9-33.7"/>
	<path class="st16" d="M333.7,159.4c-0.5-0.4-3.9-17.1,17.7-29.7c22.7-13.2,42.1,4.2,42.1,4.2s-13.3-22.8-44-9.1
		c-15.5,5.4-22,17.8-21.5,34.6C328.1,162.4,333.7,159.4,333.7,159.4z"/>
	<path class="st16" d="M384,126.5c0,0,4.9-7.5,14.7-10.4c9.9-2.9,14,9.4,14,10.4c-5.4-5.5-12.4-12.9-25.4,2.2
		C385.2,128.6,384,126.5,384,126.5z"/>
	<path class="st16" d="M410.1,122.2c0,0,2.9,6.4,10.8-0.5c7.9-6.9,10-14.7,21-8.2c-2-5.8-6.3-9.6-13.3-5.1c-7,4.5-5.1,8.5-10.7,10.7
		c-5.6,2.2-8.6,1.1-10.4-0.2C408,120,410.1,122.2,410.1,122.2z"/>
	<path class="st16" d="M440.6,111.8c0,0,13.4-4.3,16.9,4.8c3.2-0.1,5.9,0,5.9,0s-3.4-5.5-7.9-9.3s-10.1,1.2-17,1.9
		C431.5,109.9,440.6,111.8,440.6,111.8z"/>
	<path class="st16" d="M450.2,119.9c0,0,7.4-9,21.3-6.9c13.9,2.1,22.5,14.7,23.6,21.4c-3.9-1.2-6.9,1.3-6.9,1.3s-0.1-10.8-11.2-15.4
		C466,115.6,456.7,116.3,450.2,119.9z"/>
	<path class="st16" d="M339,335.9c0,0,124.9,0.2,141.6,0.2c16.7,0,31,0.2,36.5,0.9c0,0,0,33.7-19.1,45.6
		c-15.2,9.5-47.2,8.5-52.6-7.1s-5-19.8-8.3-20.6c-3.3-0.8-6.6,1.2-7.5,5.2c-0.8,4-4.4,23.7-20.8,28.3c-16.4,4.6-47,3.9-58.9-10.6
		C336.9,361.7,338.4,337.4,339,335.9z"/>
	<path class="st16" d="M360.2,274.4c-0.8,0.7-10.4,38.3-14,66s3.3,76.1,3.7,85.8c0.4,9.7-3.2-5.5-6.5-9.9c-3.4-4.4-4.7-6.1-4.7-6.1
		s-1.8-55.9-1.4-76.7c0.4-20.8,10.8-63.7,16.1-71C352.9,265.4,360.2,274.4,360.2,274.4z"/>
	<path class="st16" d="M482.1,312.9c0,0-0.7,21.1,0,31.2c0.7,10,3.5,8.3,3.5,8.3l2.8-2.7c0,0-2.3-21.8,4.4-30.4
		C485.1,316.7,482.1,312.9,482.1,312.9z"/>
	<path class="st16" d="M452.8,375.2l1,4.8c0,0-2.7,3.3-2.2,8.1s2.7,7.6,1,6.3c-1.7-1.4-7.5-6.8-10.3-14.1c-2.8-7.2-0.7-17.1-2.3-22
		c-1.6-4.9,2.3-3.4,2.3-3.4L452.8,375.2z"/>
	<path class="st16" d="M379,406c-0.1-0.4,20.2,9.7,48.9,9.9s39.1-3.1,43.7-7.7c-5.7,10.9-26.7,13.3-46.3,12.3
		C405.7,419.5,380.5,415.2,379,406z"/>
	<path class="st16" d="M404.4,416.5c-0.1,0.3,0.1,9.4,12.5,14.7c12.4,5.3,37.3,5,43.6,0.2c1.5-6.3,3.5-17.2,3.5-17.2l-12.5,3
		c0,0,5.9,0.2,5.9,4.5c0,4.3-0.2,7.6-0.2,7.6s-36.6,9.4-48.3-11.7C403.5,418.1,404.4,416.5,404.4,416.5z"/>
	<path class="st16" d="M384,410.1c-0.2,0.2,3.3,25.3,21.2,36.2c17.9,10.8,34.2,12.9,51,7s16.8-12.8,18.2-16.8
		c-7.2,9.7-16.6,14.2-29.4,14.9c-12.8,0.8-29.7-2.3-41.2-12.2c-11.5-9.9-12.4-25.9-12.4-25.9L384,410.1z"/>
	<path class="st16" d="M457.6,431c0,0,0.3,13,6.4,15.7c-0.8,1.2-3.2,2.4-3.2,2.4l-4.1,0.9c0,0,2.8-2.2,1.9-4.5s-3-11.2-7.3-11.9
		C447.2,433,457.6,431,457.6,431z"/>
	<path class="st16" d="M410,445.4c0,0,9.7-2.4,17.6-4.8c7.9-2.4,11.4-0.4,12.6,1.1s2.6,2.7,3.5,3.7c-0.5,0.9-4.7-1.2-6.6-2.5
		s-7.2,0.2-9,1.1c-1.9,0.9-6.6,2-5.5,5.7C423.5,453.4,410,445.4,410,445.4z"/>
	<path class="st16" d="M442.1,444.5c0.1-0.1,2.1-1.5,4.6-2.3c2.5-0.8,4.4,1.5,5.2,4.1c0.8,2.5,3.4,3.8,3.4,3.8s2.9-0.3,2.8-0.3
		c-0.1,0,0.7-0.7,0.7-0.7l1.3-1.6l0.2-1.4l-2-1.7c0,0-0.3,1.6-2,1.7c-1.7,0.1-4-3.3-5.9-5.5s-3.9-2.3-5.5-1.1
		c-1.5,1.2-4,2.4-5.4,1.6c-1.4-0.9-0.8,0.8-0.8,0.8S440.8,445.4,442.1,444.5z"/>
	<path class="st16" d="M441.6,408.4c0.3-0.5,3.6-2.6,7.8-5.7c4.3-3,4.4-3.4,5.6-0.9s3.7,4.7,0.9,6
		C453.1,409.1,439.5,411.5,441.6,408.4z"/>
	<path class="st16" d="M480,307.6c0,0-17.1,10.8-31.8,5.3c2,4.9,13.6,8.9,33.5,1C482,311.5,480,307.6,480,307.6z"/>
	<path class="st16" d="M396.8,292.6c0-0.5,9.2,13.3,28.1,15C419.7,313.3,396.3,307.2,396.8,292.6z"/>
	<path class="st16" d="M407.9,278.9c-0.4,0.8,47.8,32.1,75.8-3.8c-3.4-2.1-4.2-1-4.2-1s-27,26-66.5,1
		C408.1,277.5,407.9,278.9,407.9,278.9z"/>
	<path class="st16" d="M547.9,474.2c-0.4,0.9-12.8,1.7-22.8-12.6s-10.6-42.5-6.5-51.7c4.1-9.2,9.8-19.6,8.9-25.3
		c-0.9-5.8-1.7-24.1-5.6-32.1s10-14.7,21.3-10.6c11.3,4.1,16.5,17.4,19.1,28c2.6,10.6-1.7,24.5-12.4,22.4c4.3-2,11.7-11.9,6.5-25
		c-5.2-13.2-10.2-19.8-18.7-19.1c-8.5,0.7-8.7,4.5-7,12.4s4.5,17.8,3.7,25.4c-0.7,7.6-2.2,12-6.9,19.9c-4.6,7.9-7.8,19.8-3.7,33.5
		s7.8,28.8,21.7,27.2C549.8,469.2,547.9,474.2,547.9,474.2z"/>
	<path class="st16" d="M556.4,389.4c-0.6,0,8.4,4.9,22-1.1c13.6-6,19.9-8.6,31.2-15.4c11.3-6.9,14.2,0.3,15.1,8.6
		c0.9,8.2-2.3,29-13.9,32.5c-11.6,3.5-39.6,2.4-48.9-1.7c-9.3-4.1-11.8,4.3-12.7,4.4s19.2,1.7,32.7,4s25.8,3.8,33.5-1.4
		c7.6-5.2,15.4-11.6,16-26.9s3.2-23.1-4.3-28.4c-7.5-5.3-17.1,1.8-24.3,6.1c-7.2,4.3-30.9,18.5-42.9,14.7L556.4,389.4z"/>
	<path class="st16" d="M557.5,411.2c-0.2,0-8.1-0.9-15.2,3.6c-7.1,4.5-13.7,10.5-11.9,22c1.8,11.5,10.4,20.6,20.9,18.8
		c10.5-1.7,13.7-3.1,14.6-8.2c0.9-5.1-1.6-0.5-5,0.9c-3.4,1.3-14.4,6.2-21.3-2.7s-3.4-19,0.6-21.8c4-2.8,10.7-6.9,17.1-6.2
		S557.5,411.2,557.5,411.2z"/>
	<path class="st16" d="M544.8,452.1c-0.6,0.7-8.6,4.8-4.4,15.5s18.5,15.8,29.9,11.1s12.8-5.5,22.2-11.4s13.8-22,9.3-25.5
		s-7.2-6.4-3.9-9.9c3.3-3.5,7.8-6.7,4.9-10.4c-2.9-3.7-3.5-2.9-6-3.2c-2.4-0.2-8.1-0.6-8.1-0.6s-3.4-1.1-4-0.2s7.8,3.7,8.6,9.2
		c0.7,5.5-7,5.5-5.1,12c1.8,6.5,10.3,5.3,7.1,13.5c-3.2,8.2-10.5,13.3-22.4,17.4c-11.9,4-26.6,6.5-24.5-15.8
		C545.4,453.7,544.8,452.1,544.8,452.1z"/>
	<path class="st16" d="M607.4,383.8c-0.2,0.4-1.7,8.2-6.7,15.6s5.9,3.2,8.6-2.5C612,391.2,609.6,378.9,607.4,383.8z"/>
	<path class="st16" d="M492.8,377.9c0,0.9,0.7,20.6,5.9,41.1c4.4,17.4,12.8,35.1,20.1,43.8c15.9,18.9,33.8,25.5,49.4,28.8
		c15.6,3.3,24.2,4.9,22.6,8.5c-1.5,3.6-3.2,9.3-3.2,9.3l-6,3.8c0,0,1.4-7.1-16.7-13.4s-43.8-11.3-60-44
		c-16.2-32.7-24.1-67.1-18.4-82.7C492.2,357.5,492.8,377.9,492.8,377.9z"/>
	<path class="st16" d="M492.8,405.1c0.6-0.6,3.1,6.8,10.9,6.8c7.8,0,18.3-1.9,18.3-1.9l-1.9,8.6c-1,1.2-3.3-1.7-10.1-2.4
		c-6.8-0.7-13.6,2.4-13.6,2.4S490.3,407.5,492.8,405.1z"/>
	<path class="st16" d="M501.1,437.3c0,0,15.5,0.4,20.9,7.1c5.4,6.7,1.6,10.6,1.6,10.6c-0.9-0.2-11-8.9-20-10.6
		C500.2,439.4,501.1,437.3,501.1,437.3z"/>
	<path class="st16" d="M317.1,474.6c-0.2-0.4,3.7-13.9-5.2-29.6c-9-15.7-20.8-30.1-9.7-37.4c11.4-7.4,33.6-7.5,41.3,2.3
		c7.7,9.7,12,20.5,9.1,32.3s3.1,23,3.1,23s-9.1,2-10.2,1.6s-3-13.1-0.8-21.8c2.2-8.7,4.9-16.9-6.1-26.3s-14.1-11.9-23.8-8.7
		c-9.6,3.2-9.6,11-4.1,19.2c5.5,8.2,10,14.7,10.4,23.5s5.2,15.3,5.2,15.3l-2.4,4.7L317.1,474.6z"/>
	<path class="st16" d="M307.4,504.6c1-1,7.3-5.1,4.3-14.2c-3-9.1,1.8-17.7,12.6-21.6c10.8-3.8,29.3-1.7,43.1-7.4
		c13.8-5.7,30.8-20.9,35.8-16.4c5.1,4.4,13.2,31.6,1.1,42.4c-12.1,10.8-28.7,14.8-37.7,15.1c-9.1,0.4-15.1-0.4-19.7-3.5
		c-4.5-3.1,13,1.2,22.2-0.8c9.2-2,23.2-6.1,28.9-14.6c5.7-8.5,10.7-16.7,6.2-25.8c-4.5-9.1-14.1,1.6-27.3,5.5s-25.2,9.2-35.2,7.7
		s-17.1,3.7-21.2,9.8s2.4,15.1-3.7,20.9c-6.1,5.7-10.4,12.4-5.7,21.8c4.7,9.4,15.6,6.9,15.6,15.1c0,8.3-7.5,19.3,5.1,22.2
		c12.6,3,16.5-0.8,26.4-6.7c9.8-5.9,16.3-9.6,14.8-17.3c-1.6-7.7-4.5-7.9-12.8-7.5c-8.3,0.4-2.4-2.1,5.3-3.6s11.7-0.1,13.5,5.4
		c1.8,5.5,2.2,18.3-6.5,22.8c-8.7,4.5-9.6,9.1-21.8,12.2c-12.2,3.1-22.4,5.1-27.7-0.8c-5.3-5.9-5.5-10.4-4.7-16.5
		c0.8-6.1,2-9.4-5.1-12.6C306.1,533.3,296.4,515.2,307.4,504.6z"/>
	<path class="st16" d="M367.6,525.6c0.3-0.7,7.9-2,7.9-8.4s-7.5-13.6-12.9-15.5c2.4-1.4,7.2-1.2,7.2-1.2l2-0.1l1-0.1
		c0,0,5.2,6.9,6.7,13.4s0.9,13.1-4.9,14.8C368.8,530.2,367.6,525.6,367.6,525.6z"/>
	<path class="st16" d="M394.9,462.3c0,0,3.1,5.6-0.4,13.7c-3.6,8.1,5.8-0.7,6.1-6.9C401,463,394.4,457.9,394.9,462.3z"/>
	<path class="st16" d="M311.9,438.7c-1,0.4-18.8,23.4-21,49.3c-2.3,25.8,17.7,42.1,17.7,42.1l0.8-5.8l-3.3-7.3v-2.3l0.5-3.1
		c0,0-9-12.4-8.8-31c0.2-18.6,18.2-35,18-35.4S311.9,438.7,311.9,438.7z"/>
	<path class="st16" d="M376.1,540.9c0.4,0.6,12.3,19.4,17.6,21.2c4.6,1.1,9.2-5,9.2-5s-19.3-20.6-23.8-37.4c-2.4,0-4.8,6.2-4.8,6.2
		S372.6,535.6,376.1,540.9z"/>
	<path class="st16" d="M396.1,555.4c0,0-10.5-0.6-7.7,19.7c2.8,20.3,10.3,31.5,8.6,50.6c-1.7,19-4.1,37.2,8.4,40.4s19-11,14.5-27.4
		c-4.5-16.4-12.5-34.1,2.6-37.8c15.1-3.7,17.7,17.1,13.2,37.2s-19.2,58.3-5.4,66.8c13.8,8.4,25.7,1.3,24.8-13
		c-0.9-14.3-7.3-25.9,3.2-26.8s12.7,18.4,7.1,44.3s-5.8,51,11.7,51.4c17.5,0.4,26.1-17.7,22.9-36.9s-16.9-62.4,0.7-71.7
		c17.5-9.3,23.1,5.2,20.8,25.7c-2.4,20.5,2.2,37.6,16.4,35.2c14.3-2.4,16-17.9,10.2-33.3s-5.8-30.7,6-31.5
		c11.9-0.9,19.9,11.5,17.5,37.4s-0.2,49.5,12.7,51.2s25.9-14.9,15.8-41.9c-10.2-27-20.3-60.3-7.8-67c12.5-6.7,10.6,9.9,10.2,19.2
		c-0.4,9.3,4.1-5.6,3-14.5c-1.1-8.9-5.8-16.6-14.9-11.5s-10.2,20.3-9.3,31.3s7.3,25.1,11,40.2c3.7,15.1,7.8,28.5-0.2,33.9
		c-8,5.4-14.9-6.7-14.7-19.7c0.2-13,2.8-35.6-2.4-47.5c-5.2-11.9-13-19.7-23.5-18.6c-10.6,1.1-14.3,11.7-13.2,22.9
		s9.3,29.6,6.5,36.1c-2.8,6.5-13.2,6.5-16.2-2.8c-3-9.3,4.3-35.9-3.2-45.8c-7.6-9.9-19.1-11.5-28.5-4.8
		c-9.5,6.7-13.8,18.4-12.1,34.8c1.7,16.4,11.2,43.4,6.9,54.4c-4.3,11-7.6,17.5-15.6,14.5s-7.6-19.4-4.8-36.5
		c2.8-17.1,7.1-41-1.1-48.8c-8.2-7.8-17.5-8.9-22.3,1.7s4.4,24.1-3.4,31.6s-12.7-0.7-13.4-8.9s10.7-41.7,11.1-57.9
		c0.4-16.2-0.1-29.8-9.5-34.1c-9.3-4.3-16-5.4-22.7,6.3c-6.7,11.7,4.7,27.7,4.3,39.1c-0.4,11.5-0.5,15.4-5.9,16
		c-5.4,0.6-9.2-6.1-7.6-15.7s6.2-35.2-1.4-49.4c-7.6-14.1-4.3-29.4-0.4-33C399.5,557.6,396.1,555.4,396.1,555.4z"/>
	<path class="st16" d="M396.1,566.4c0.2-0.7,7.3-10.5,7.9-1.4c0.6,9.2,2.5,17,11.3,14.5c8.8-2.5-1.9-12.8,8.4-14.5
		c10.3-1.7,3.8,11.8,13.9,14.7c10.1,2.9,20.6,3.8,21.7-6.9c1.1-10.7,5-18.7,17.4-18.3s12.6,10.5,12.6,27.3s12.4,17.9,21.5,8.6
		c9.2-9.3,2.1-19.8-0.4-33.6c-2.5-13.7-2.4-24.4,5.8-27.9c8.2-3.5,10.4,1.9,9.3,12.1c-1.1,10.3,4,20.2,18.3,12.4
		c14.3-7.8-2.9-17,9.3-21.7s6.2,7.6,18.2,5.5s13-3.8,11.9-12.6c-1.1-8.8-1-12.9,9.5-11.3c10.5,1.6,13.7,15.9,17.5,31.7
		c3.8,15.8-6.1,23.6-3.2,31.3c2.9,7.6,8.8,9,4.1,15.8c-4.7,6.9-6.7,22.3-2.7,32.3c4,9.9,2.8,12,7.9,19.3c5.1,7.3,0.8,10.4-6.5,10.9
		c-7.3,0.6-5-10.9-5-10.9s-1.7-12.2-1.5-11.7c0.1,0.4-1.9-2.7-1.9-2.7s1.5,6-0.6,15.5c-2.1,9.5-0.8,14.5,7.3,16
		c8.2,1.5,13-0.1,15.1-8.4c2.1-8.3-2.1-12.7-6.5-20.6c-4.4-7.9-8-23.2-4.7-30.7s9.1-13.7,5.3-18.1c-3.9-4.4-6.8-11.9-3.2-17.1
		c3.6-5.3,4.4-18.9,0.7-27.4s-5.7-20.6-12-28.2s-8.7-13.7-18.8-12.3c-10.1,1.4,0.3,4,0.3,4s-9,5.1-10.2,14.1
		c-1.2,9,4.1,14.1-1.5,13.5c-5.7-0.6-7.3-8.4-15.5-6.4c-8.2,2.1-15.6,6.2-16.7,13.3s4.2,11.3-2.7,12.2s-6.2-4.4-6.2-11.5
		c0-7,3-13.4-7.2-14.6s-18,6.1-20.3,14.2c-2.3,8.2-0.8,19.9,1.5,30.3c2.3,10.4,4.8,15.2-1.7,19.1c-6.5,3.9-8.3-2.2-8.8-14
		c-0.6-11.7-1.7-20-10.5-22.8s-19.2-3.8-26.2,5.9c-7,9.7-1.9,21.9-12.4,20.1s-4.1-13-12.6-15.9c-8.4-2.9-10.6-4-16,1.1
		c-5.4,5.1,0.7,11.5-3,13.5c-3.7,2.1-3.8-1.5-3.6-6.4s-4-20.6-14.6-12.5C386.1,563.3,396.1,566.4,396.1,566.4z"/>
	<path class="st16" d="M574.5,514.4c0,0,2.5-2.5-1.9-4.7c-4.4-2.2-14,3.6-18.3,8.1s-1.4-4.1,3.1-8s12.2-6.2,11.2-8.6
		s2.2-2.2,2.2-2.2s3-0.6,6.7,0.2s6.9,2.8,6.9,2.8l0.4,2.1L583,508C583,508,576.8,517.2,574.5,514.4z"/>
	<g>
		<path class="st16" d="M604,690.3c-0.2-0.9,6.5,37.9,12.9,42.4c6.5,4.5-1.1,2.8-6.7,7.8c-5.6,5-0.9-3-2.4-9.3
			c-1.5-6.2-7.8-26.3-11.4-26.9C592.8,703.7,604,690.3,604,690.3z"/>
		<path class="st16" d="M558.6,678c0.4,0.9,14,19.6,18.7,36.6c4.7,17,7.5,36.8,11.8,40.9c4.3,4.1-7.3,1.1-7.3,1.1l-3.2,0.2
			c0,0-0.4-14.4-2.6-24.3c-2.2-9.9-8.4-24.1-14.2-26.9C559.8,695,558.6,678,558.6,678z"/>
		<g>
			<path class="st16" d="M680.5,818.4c-4.1,0-8-0.2-11.4-0.5l-1.2-0.1c-23.6-2.3-50.3-5-54.7-17.6c-4.3-12.3-2.2-36.1,7.8-51.8
				c10.4-16.4,20.5-29.2,46.4-32.2c3.5-0.5,33.6-3.8,49.8,22.7c16.1,26.4,20.6,50.2,11.8,63.7C721.3,814.5,698.8,818.4,680.5,818.4z
				 M673.9,722.8c-2.8,0-4.8,0.2-5.5,0.3l-0.2,0c-22.9,2.7-31.5,13.7-41.3,29c-9.6,15.1-10.3,36.6-7.1,45.7
				c2.9,8.4,31.6,11.2,48.8,12.9l1.2,0.1c20.6,2,46.8-2,53.4-12.2c7.1-11,2.6-32.5-11.9-56.2C700.6,725.2,683,722.8,673.9,722.8z"/>
		</g>
		<g>
			<path class="st16" d="M688.9,859.9c-20.6,0-49.2-3.6-64.3-9.6c-19-7.6-20.9-13.7-21.5-20.9c-0.5-5.9-0.5-18-0.2-23.7
				c0.3-7.4,8.9-13.3,9.9-14l3.9,5.8c-2.2,1.4-6.7,5.4-6.8,8.4c-0.2,5.4-0.2,17.3,0.2,22.9c0.4,4.3,0.7,8.4,17.2,15
				c17.7,7.1,57.4,10.8,75.2,8.4c18.4-2.5,30.6-13.9,31.6-18c2.5-11.2,4-19.2,4.4-22.7c0.1-0.8,0.2-1.6,0.3-2.4
				c0.6-4.9,0.7-7.4-1.6-8.7c-5-2.8-8.8-4.1-8.9-4.1l2.2-6.6c0.2,0.1,4.5,1.5,10.1,4.7c6.6,3.7,5.7,10.9,5.1,15.7
				c-0.1,0.7-0.2,1.5-0.3,2.2c-0.4,4.7-2.7,15.4-4.5,23.5c-1.8,7.9-16.9,20.7-37.5,23.5C699.3,859.7,694.4,859.9,688.9,859.9z"/>
		</g>
		<g>
			<path class="st16" d="M604.3,826.8c-0.7-0.4-1.2-1-2.4-2.4c-2.1-2.4-6.1-6.8-9.6-8.3l-0.5-0.2c-5.7-2.4-11.1-4.7-11.1-11.6
				c0-2.5,0.4-11.1,5.3-16.1c3.9-3.9,6.4-3.5,11.1-2.3c0.7,0.2,1.4,0.3,2.2,0.5c6.5,1.5,15.1,5.9,15.5,6.1l-3.2,6.2
				c-0.1,0-8.2-4.2-13.8-5.5c-0.9-0.2-1.6-0.4-2.3-0.6c-1.4-0.3-2.7-0.7-3.2-0.6c0,0-0.3,0-1.3,1.1c-2,2-3.3,6.4-3.3,11.1
				c0,2,1,2.7,6.8,5.2l0.5,0.2c5,2.1,9.6,7.3,12.1,10.1c0.5,0.5,1,1.1,1.2,1.3c-0.1-0.1-0.2-0.2-0.3-0.2L604.3,826.8z"/>
		</g>
		<g>
			<path class="st16" d="M589.3,795.7l-6.4-2.9c-0.5,1.1-0.3,2-0.2,2.1c-0.2-0.7-1.5-4.4-2.8-8.1c-1.3-3.6-2.9-8-4.3-12.2
				c-0.7-2-1.4-3.8-2-5.3c-2.5-6.5-4.5-11.5-0.6-16.8c4.2-5.7,9.2-2.5,12.3-0.5c1.7,1.1,3.7,2.3,6.1,3.2c2.8,1,4,0.8,4.4,0.6
				c1.3-0.7,2.2-4.4,2.5-5.7c2-8.2,12.8-17.5,21.6-21.1c9.2-3.8,19-0.2,19.5,0l-2.4,6.6c-0.1,0-7.7-2.8-14.4,0
				c-7.6,3.1-16.2,11.2-17.5,16.3c-0.9,3.9-2.3,8.2-6,10.2c-2.6,1.4-6,1.4-10.1-0.2c-3.2-1.2-5.5-2.7-7.5-3.9
				c-0.9-0.6-2-1.3-2.6-1.5c-0.1,0.1-0.2,0.2-0.3,0.3c-1.4,2-1,3.8,1.5,10.1c0.6,1.6,1.4,3.5,2.1,5.6c1.4,4.1,3,8.5,4.3,12.1
				C589.9,794.3,589.9,794.3,589.3,795.7z"/>
		</g>
		<path class="st16" d="M624.4,749.6c-0.2-0.1-6.6,0-9.8,7s-4,14-6.5,12.9s-7.1-3.1-5.9-5.3s7.2-15.2,5.9-19
			c-1.3-3.8,3.5-7.2,3.5-7.2l4.7-2.5l3.9-1.1c0,0,1.4-1.4,1.2-0.6s-6.4,7.7-9.4,14.8c-3,7.1-4.7,10.2-4.5,12.7s1.4-1.8,5-7.4
			c3.6-5.6,7.8-12.5,14.9-13.9C634.6,738.8,627.2,750.2,624.4,749.6z"/>
		<path class="st16" d="M607.6,750.5c0,0,0.5-3.5-1.5-1.8s-2.5-0.8-1.9-1.7c0.7-0.9,3.2-3,3.2-3l2,0.6
			C609.5,744.6,610.9,749,607.6,750.5z"/>
	</g>
	<g>
		<path class="st16" d="M426,690.3c0.2-0.9-6.5,37.9-12.9,42.4s1.1,2.8,6.7,7.8c5.6,5,0.9-3,2.4-9.3c1.5-6.2,7.8-26.3,11.4-26.9
			C437.2,703.7,426,690.3,426,690.3z"/>
		<path class="st16" d="M471.5,678c-0.4,0.9-14,19.6-18.7,36.6c-4.7,17-7.5,36.8-11.8,40.9c-4.3,4.1,7.3,1.1,7.3,1.1l3.2,0.2
			c0,0,0.4-14.4,2.6-24.3c2.2-9.9,8.4-24.1,14.2-26.9C470.2,695,471.5,678,471.5,678z"/>
		<g>
			<path class="st16" d="M349.5,818.4c-18.3,0-40.8-3.9-48.5-15.9c-8.7-13.5-4.3-37.3,11.8-63.7c16.2-26.5,46.4-23.2,49.8-22.7
				l-0.4,3.5l0.4-3.5c25.9,3,35.9,15.8,46.4,32.2c10,15.7,12.1,39.4,7.8,51.8c-4.4,12.6-31.1,15.3-54.7,17.6l-1.2,0.1
				C357.4,818.2,353.5,818.4,349.5,818.4z M356.1,722.8c-9.1,0-26.8,2.4-37.4,19.8c-14.5,23.6-19.1,45.2-11.9,56.2
				c6.6,10.1,32.8,14.2,53.4,12.2l1.2-0.1c17.1-1.7,45.8-4.5,48.8-12.9c3.2-9.1,2.5-30.7-7.1-45.7c-9.7-15.3-18.4-26.4-41.3-29
				l-0.2,0C360.9,723,358.9,722.8,356.1,722.8z"/>
		</g>
		<g>
			<path class="st16" d="M341.2,859.9c-5.5,0-10.5-0.3-14.4-0.8c-20.6-2.8-35.7-15.5-37.5-23.5c-1.8-8.1-4-18.8-4.5-23.5
				c-0.1-0.7-0.2-1.4-0.3-2.2c-0.6-4.8-1.6-11.9,5.1-15.7c5.6-3.2,9.9-4.6,10.1-4.7l2.2,6.6c-0.1,0.1-4,1.4-8.9,4.1
				c-2.3,1.3-2.2,3.7-1.6,8.7c0.1,0.8,0.2,1.6,0.3,2.4c0.3,3.4,1.9,11.5,4.4,22.7c0.9,4.1,13.1,15.6,31.6,18
				c17.8,2.4,57.4-1.3,75.2-8.4c16.5-6.6,16.8-10.7,17.2-15c0.5-5.6,0.4-17.5,0.2-22.9c-0.1-3-4.6-7-6.8-8.4l3.9-5.8
				c1,0.7,9.6,6.6,9.9,14c0.2,5.7,0.2,17.8-0.2,23.7c-0.6,7.2-2.6,13.3-21.5,20.9C390.3,856.4,361.8,859.9,341.2,859.9z
				 M301.9,796.3l-1.1-3.3L301.9,796.3C301.9,796.3,301.9,796.3,301.9,796.3L301.9,796.3z"/>
		</g>
		<g>
			<path class="st16" d="M425.7,826.8l-3.7-5.9c-0.1,0-0.2,0.1-0.3,0.2c0.2-0.2,0.8-0.8,1.2-1.3c2.5-2.8,7.1-7.9,12.1-10.1l0.5-0.2
				c5.9-2.5,6.8-3.2,6.8-5.2c0-4.7-1.3-9.1-3.3-11.1c-1-1-1.3-1.1-1.3-1.1c-0.4-0.1-1.8,0.3-3.2,0.6c-0.7,0.2-1.5,0.4-2.3,0.6
				c-5.7,1.3-13.8,5.5-13.8,5.5l-3.2-6.2c0.4-0.2,8.9-4.6,15.5-6.1c0.8-0.2,1.6-0.4,2.2-0.5c4.8-1.2,7.2-1.6,11.1,2.3
				c5,5,5.3,13.5,5.3,16.1c0,6.9-5.4,9.2-11.1,11.6l-0.5,0.2c-3.6,1.5-7.5,5.9-9.6,8.3C426.9,825.7,426.4,826.3,425.7,826.8z"/>
		</g>
		<g>
			<path class="st16" d="M440.7,795.7c-0.7-1.5-0.7-1.5,2.9-11.2c1.3-3.6,2.9-8,4.3-12.1c0.7-2.1,1.4-3.9,2.1-5.6
				c2.5-6.3,2.9-8.2,1.5-10.1c-0.1-0.1-0.2-0.2-0.3-0.3c-0.6,0.2-1.8,1-2.6,1.5c-1.9,1.2-4.3,2.7-7.5,3.9c-4.2,1.5-7.5,1.6-10.1,0.2
				c-3.8-2-5.1-6.3-6-10.2c-1.2-5.1-9.9-13.2-17.5-16.3c-6.6-2.7-14.3,0-14.4,0l-2.4-6.6c0.4-0.2,10.3-3.7,19.5,0
				c8.8,3.6,19.6,13,21.6,21.1c0.3,1.4,1.2,5,2.5,5.7c0.4,0.2,1.6,0.5,4.4-0.6c2.4-0.9,4.4-2.1,6.1-3.2c3-1.9,8.1-5.1,12.3,0.5
				c3.9,5.3,1.9,10.4-0.6,16.8c-0.6,1.6-1.3,3.4-2,5.3c-1.4,4.1-3,8.6-4.3,12.2c-1.3,3.6-2.7,7.4-2.8,8c0-0.2,0.2-1.1-0.2-2.1
				L440.7,795.7z"/>
		</g>
		<path class="st16" d="M405.6,749.6c0.2-0.1,6.6,0,9.8,7s4,14,6.5,12.9s7.1-3.1,5.9-5.3c-1.2-2.3-7.2-15.2-5.9-19
			c1.3-3.8-3.5-7.2-3.5-7.2l-4.7-2.5l-3.9-1.1c0,0-1.4-1.4-1.2-0.6s6.4,7.7,9.4,14.8c3,7.1,4.7,10.2,4.5,12.7s-1.4-1.8-5-7.4
			c-3.6-5.6-7.8-12.5-14.9-13.9C395.4,738.8,402.8,750.2,405.6,749.6z"/>
		<path class="st16" d="M422.4,750.5c0,0-0.5-3.5,1.5-1.8c2,1.7,2.5-0.8,1.9-1.7c-0.7-0.9-3.2-3-3.2-3l-2,0.6
			C420.5,744.6,419.1,749,422.4,750.5z"/>
	</g>
	<path class="st16" d="M604.6,693.7c0,0-5.2-25.7,2.3-35.1c-3.3-4.4-4-7.3-4-7.3l-0.8-6l0.8-6.9c0,0-4.5,12.8-5.2,23.1
		s-0.8,16.9,0,26.6c0.8,9.8,2.7,14.2,2.7,14.2L604.6,693.7z"/>
	<path class="st16" d="M563.2,685.1c-0.2-0.3-10.3-19.1-21-25.8c-1.6,2.4,1.2,17.4,1.2,17.4s5.6,24.1,3.9,26.7
		c-1.7,2.6-1.2,1.8-1.2,1.8s9.3-3.4,15.7,0.4c6.4,3.8,7.4,0.7,7.4,0.7L563.2,685.1z"/>
</g>
<g id="Layer_3">
	<g>
		<path class="st10" d="M492.2,372.4c-1.3,0-2.6-0.7-3.4-1.9c-1.2-1.9-0.6-4.3,1.3-5.5c9.6-5.9,8-14.3,7.9-14.7
			c-0.4-2.1,0.9-4.3,3.1-4.7c2.1-0.5,4.3,0.8,4.7,3c0.1,0.6,3.1,14.2-11.5,23.2C493.6,372.2,492.9,372.4,492.2,372.4z"/>
	</g>
	<g>
		<path class="st10" d="M471.2,381.7c-1.4,0-2.6-0.1-3.3-0.1c-2.2-0.2-3.9-2.1-3.7-4.3s2.1-3.9,4.3-3.7c2.5,0.2,5.5,0.1,6.3-0.2
			c2-0.9,4.4,0.1,5.2,2.1c0.9,2-0.1,4.4-2.1,5.3C476.2,381.5,473.5,381.7,471.2,381.7z"/>
	</g>
	<g>
		<path class="st10" d="M405.4,376.4c-1.5,0-3-0.9-3.6-2.4c-0.9-2,0-4.4,2-5.3c9.6-4.3,8.2-16.4,8.2-16.5c-0.3-2.2,1.3-4.2,3.5-4.4
			c2.2-0.3,4.2,1.3,4.4,3.5c0.1,0.7,2,18-12.9,24.8C406.5,376.3,405.9,376.4,405.4,376.4z"/>
	</g>
	<g>
		<path class="st10" d="M382,383.9c-3.1,0-5.3-0.4-5.4-0.4c-2.2-0.4-3.7-2.4-3.3-4.6c0.4-2.2,2.4-3.6,4.6-3.3c0.1,0,3,0.5,6.7,0.2
			c2.2-0.2,4.1,1.5,4.3,3.7c0.2,2.2-1.5,4.1-3.7,4.3C384.1,383.9,383,383.9,382,383.9z"/>
	</g>
</g>
</svg>
